<?xml version="1.0" encoding="utf-8"?>
<!-- Svg Vector Icons : http://www.sfont.cn -->
<!DOCTYPE svg PUBLIC "-//W3C//DTD SVG 1.1//EN" "http://www.w3.org/Graphics/SVG/1.1/DTD/svg11.dtd">
<svg version="1.1" xmlns="http://www.w3.org/2000/svg" xmlns:xlink="http://www.w3.org/1999/xlink" x="0px" y="0px" viewBox="0 0 1000 1000" enable-background="new 0 0 1000 1000" xml:space="preserve">
<metadata> Svg Vector Icons : http://www.sfont.cn </metadata>
<g><path d="M944.1,70.6c13.8-13.8,13.8-36.4,0-50.2c-13.8-13.8-36.4-13.8-50.2,0L568,346.2c-13.8,13.8-13.8,36.4,0,50.2c13.8,13.8,36.4,13.8,50.2,0L944.1,70.6z M187.6,599.2c0,19.5,16,35.5,35.5,35.5l497.4,0c19.5,0,35.5-16,35.5-35.5l0,0c0-19.5-16-35.5-35.5-35.5l-497.4,0C203.6,563.7,187.6,579.7,187.6,599.2z M471.9,386c0-19.5-16-35.5-35.5-35.5l-213.2,0c-19.5,0-35.5,16-35.5,35.5c0,19.5,16,35.5,35.5,35.5l213.2,0C455.9,421.6,471.9,405.6,471.9,386L471.9,386z M614,101.8c0-19.5-16-35.5-35.5-35.5l-213.2,0c-19.5,0-35.5,16-35.5,35.5c0,19.5,16,35.5,35.5,35.5l213.2,0C598,137.3,614,121.4,614,101.8L614,101.8z M862.6,705.8c19.5,0,35.5-16,35.5-35.5V457.1c0-19.5-16-35.5-35.5-35.5c-19.5,0-35.5,16-35.5,35.5l0,213.2C827.1,689.8,843.1,705.8,862.6,705.8L862.6,705.8z"/><path d="M827.1,563.7v284.2c0,39.1-32,71.1-71.1,71.1H187.6c-39.1,0-71.1-32-71.1-71.1V208.4c0-39.1,32-71.1,71.1-71.1h284.2V66.3H187.6c-78.2,0-142.1,63.9-142.1,142.1v639.5c0,78.2,63.9,142.1,142.1,142.1h568.4c78.2,0,142.1-63.9,142.1-142.1V563.7H827.1z"/></g>
</svg>